<?xml version="1.0" standalone="no"?>
<!DOCTYPE svg PUBLIC "-//W3C//DTD SVG 20010904//EN"
 "http://www.w3.org/TR/2001/REC-SVG-20010904/DTD/svg10.dtd">
<svg version="1.0" xmlns="http://www.w3.org/2000/svg"
 width="188.000000pt" height="199.000000pt" viewBox="0 0 188.000000 199.000000"
 preserveAspectRatio="xMidYMid meet">

<g transform="translate(0.000000,199.000000) scale(0.100000,-0.100000)"
fill="#000000" stroke="none">
<path d="M1830 1960 c0 -13 7 -20 20 -20 13 0 20 7 20 20 0 13 -7 20 -20 20
-13 0 -20 -7 -20 -20z"/>
<path d="M344 1731 c-23 -10 -54 -36 -70 -57 l-29 -37 -3 -486 -2 -486 22 -44
c13 -25 36 -54 51 -65 28 -21 39 -21 535 -21 l507 0 34 24 c18 13 42 42 52 65
17 38 19 74 19 513 0 310 -4 481 -11 500 -15 40 -48 73 -94 94 -37 17 -74 19
-505 19 -433 0 -468 -2 -506 -19z m123 -258 c4 -10 41 -164 83 -343 l75 -325
290 -5 c282 -5 290 -6 290 -25 0 -18 -8 -20 -70 -23 -42 -2 -79 2 -93 9 -18
10 -30 10 -56 1 -39 -15 -172 -16 -181 -2 -8 13 -48 13 -60 1 -10 -10 -151
-18 -159 -10 -3 2 -40 156 -82 342 l-78 337 -57 0 c-70 0 -89 7 -89 30 0 25
12 28 103 29 65 1 79 -2 84 -16z m836 -63 c4 0 7 -7 7 -16 0 -23 -109 -495
-120 -521 -10 -23 -10 -23 -260 -23 l-250 0 -9 23 c-5 12 -35 136 -67 275 -39
174 -54 256 -47 260 8 5 574 7 746 2z m-493 -670 c21 -40 -9 -78 -51 -65 -24
8 -35 50 -19 70 18 22 57 19 70 -5z m242 -5 c10 -22 9 -29 -10 -47 -18 -19
-25 -20 -47 -10 -16 8 -25 20 -25 35 0 50 62 66 82 22z"/>
<path d="M615 1338 c3 -13 27 -115 53 -228 l47 -205 215 0 215 0 47 200 c25
110 49 212 52 228 l6 27 -320 0 -320 0 5 -22z m426 -48 c27 -15 24 -53 -7 -89
-22 -26 -110 -76 -167 -95 -26 -8 -18 -47 11 -62 32 -16 84 -1 142 40 69 49
70 49 70 27 0 -30 -113 -117 -177 -136 -64 -20 -99 -12 -124 29 -34 55 -18
148 34 204 66 72 167 109 218 82z"/>
<path d="M929 1226 c-31 -21 -69 -65 -69 -80 0 -13 46 11 85 46 66 59 55 82
-16 34z"/>
<path d="M230 245 l0 -125 75 0 c73 0 75 1 75 25 0 23 -4 25 -45 25 -41 0 -45
2 -45 25 0 23 4 25 40 25 36 0 40 3 40 25 0 23 -4 25 -40 25 -36 0 -40 3 -40
25 0 23 4 25 45 25 41 0 45 2 45 25 0 24 -2 25 -75 25 l-75 0 0 -125z"/>
<path d="M646 349 c-30 -24 -35 -69 -10 -90 9 -8 35 -23 57 -34 45 -22 50 -33
24 -49 -14 -9 -21 -7 -31 7 -18 24 -66 23 -66 -1 0 -43 78 -74 133 -53 69 27
56 103 -23 132 -46 17 -64 44 -35 55 8 4 24 -1 34 -10 17 -16 52 -22 63 -10
13 12 -6 46 -33 59 -39 21 -82 19 -113 -6z"/>
<path d="M840 245 l0 -125 30 0 c29 0 30 1 30 50 l0 50 45 0 45 0 0 -50 c0
-49 1 -50 30 -50 l30 0 0 125 0 125 -30 0 c-29 0 -30 -1 -30 -50 l0 -50 -45 0
-45 0 0 50 c0 49 -1 50 -30 50 l-30 0 0 -125z"/>
<path d="M1150 348 c-46 -31 -62 -63 -57 -117 4 -32 13 -52 36 -75 28 -27 38
-31 86 -31 48 0 58 4 87 33 29 29 33 39 33 87 0 48 -4 58 -31 86 -44 43 -105
50 -154 17z m104 -49 c33 -26 35 -73 4 -106 -28 -30 -53 -29 -83 2 -32 31 -32
69 0 100 29 30 45 31 79 4z"/>
<path d="M1380 245 l0 -125 30 0 c29 0 30 2 30 45 l0 45 38 0 c68 0 106 51 82
110 -15 36 -48 50 -120 50 l-60 0 0 -125z m120 60 c17 -20 -3 -45 -36 -45 -20
0 -24 5 -24 30 0 25 4 30 24 30 13 0 29 -7 36 -15z"/>
<path d="M420 245 c0 -24 2 -25 75 -25 73 0 75 1 75 25 0 24 -2 25 -75 25 -73
0 -75 -1 -75 -25z"/>
</g>
</svg>
